<svg xmlns="http://www.w3.org/2000/svg" viewBox="0 0 500 500"><style>.st0{fill:#DBE0E1;stroke:#DFDFDF;stroke-miterlimit:10;} .st1{fill:#DFDFDF;} .st2{fill:none;stroke:#DFDFDF;stroke-width:4;stroke-miterlimit:10;} .st3{fill:#DBE0E1;stroke:#DFDFDF;stroke-width:2;stroke-miterlimit:10;} .st4{fill:none;stroke:#DFDFDF;stroke-width:5;stroke-miterlimit:10;} .st5{fill:#36424A;} .st6{fill:#6CC39D;} .st7{fill:#FFFFFF;}</style><g id="grey-icons"><animate attributeName="opacity" values="0;0.2;0.9;1" dur="1.5s"/><path class="st0" d="M369.7 120.8h51.7c1.2 0 2.2-1 2.2-2.2l-.1-3.3h12.3c1.2 0 2.2-1 2.2-2.2 0-16.5-11.9-30.3-15.7-34.3 3.8-3.2 6.3-8 6.3-13.3 0-9.5-7.7-17.3-17.3-17.3-3.5 0-6.9 1.1-9.8 3.1-1.9-.6-3.9-1-5.9-1-10 0-18.2 8.1-18.2 18.2 0 5.6 2.5 10.6 6.5 13.9-4.5 4.5-16.4 18.2-16.4 36.2.1 1.1 1 2.2 2.2 2.2zm63.9-9.8h-10.6c-2.6-14.1-12-24.9-15.8-28.6.1 0 .1-.1.2-.2 1.3.3 2.7.5 4 .5 2.6 0 5-.5 7.2-1.5 2.1 2.2 13.9 14.6 15 29.8zm-22.3-58.5c7.1 0 12.9 5.8 12.9 12.9s-5.8 12.9-12.9 12.9h-.6c1.9-2.9 3-6.3 3-10 0-6.1-3-11.5-7.6-14.8 1.6-.6 3.4-1 5.2-1zm-29.5 15.9c0-7.6 6.2-13.8 13.8-13.8 7.6 0 13.8 6.2 13.8 13.8s-6.2 13.8-13.8 13.8c-7.6 0-13.8-6.2-13.8-13.8zm5.9 16.4c2.4 1.2 5 1.8 7.9 1.8 2.8 0 5.4-.6 7.8-1.7 2.9 2.7 14.9 15.3 15.9 31.6h-47.3c1-16.3 12.5-28.6 15.7-31.7zm71.3 133.6c0 1.8-1 3.2-2.4 4.1v10.4h-4.8v-10.4c-1.4-.8-2.4-2.3-2.4-4.1 0-2.7 2.2-4.8 4.8-4.8 2.7 0 4.8 2.1 4.8 4.8zm26.3-12.1v34.1c0 4-3.2 7.2-7.2 7.2h-48.1c-4 0-7.2-3.2-7.2-7.2v-34.1c0-4 3.2-7.2 7.2-7.2h.1v-9.6c0-13.3 10.8-24.1 24.1-24.1s24.1 10.8 24.1 24.1v9.6c3.9.1 7 3.3 7 7.2zm-50.3-7.2h38.5v-9.6c0-10.6-8.6-19.2-19.2-19.2s-19.2 8.6-19.2 19.2l-.1 9.6zm45.5 7.2c0-1.3-1-2.3-2.2-2.4h-48.1v-.1h-.2c-1.3 0-2.4 1.1-2.4 2.4v34.1c0 1.3 1.1 2.4 2.4 2.4h48.1c1.3 0 2.4-1.1 2.4-2.4v-34zm-325.3-194h-38.5c-4 0-7.2 3.2-7.2 7.2v67.4c0 4 3.2 7.2 7.2 7.2h38.5c4 0 7.2-3.2 7.2-7.2v-67.4c0-4-3.2-7.2-7.2-7.2zm-38.5 4.8h38.5c1.3 0 2.4 1.1 2.4 2.4v7.2h-43.3v-7.2c0-1.3 1.1-2.4 2.4-2.4zm40.9 14.5v38.4h-43.3v-38.4h43.3zm-2.4 57.7h-38.5c-1.3 0-2.4-1.1-2.4-2.4v-12h43.3v12c0 1.3-1.1 2.4-2.4 2.4zm-16.9-7.2c0 1.3-1.1 2.4-2.4 2.4-1.3 0-2.4-1.1-2.4-2.4s1.1-2.4 2.4-2.4c1.4 0 2.4 1 2.4 2.4zm67.9 348.7h-1.6c-2.2-5.7-6.6-10.5-12.4-14 0-7.7.7-9.5 2.3-14.4-6 .9-11.9 4.5-15 9.8-2-.4-4.1-.6-6.1-.7.3-1.2.6-2.5.6-3.9 0-7.3-5.8-13.1-13.1-13.1s-13.1 5.8-13.1 13.1c0 3.6 1.5 6.9 3.9 9.3-5.7 3.4-10.1 8-12.4 13.6-3.9-1.5-6.1-3.6-6.1-6.4 0-3.1 2.5-5.8 4.7-6.6l-.9-2.8c-3.6 1-6.7 5.1-6.7 9 0 2.3 1 6.7 8 9.3-.6 1.9-.7 3.8-.7 5.8 0 7.3 3.6 14 9.5 18.9l-1.7 5.1c-1.2 3.5.6 7.1 4.1 8.3l4.1 1.5c.7.3 1.5.4 2.2.4 2.8 0 5.2-1.7 6.3-4.4l1.2-3.4c2.9.6 5.8 1 9 1 2 0 4.1-.1 6-.4l1.7 3.6c1.2 2.3 3.5 3.6 6 3.6 1 0 1.9-.1 2.9-.7l3.8-1.9c3.2-1.6 4.7-5.5 3.1-8.7l-1-2.2c3.9-2.6 7-6 9.2-9.9h2.9c3.9 0 7.1-3.2 7.1-7.1v-4.7c-.7-3.9-3.9-7-7.8-7zm-55.5-23.4c0-5.7 4.5-10.2 10.2-10.2s10.2 4.5 10.2 10.2c0 1.5-.3 2.8-.9 4.1-5.8.1-11.2 1.6-15.9 3.8-2.2-1.9-3.6-4.7-3.6-7.9zm59.7 35.2c0 2.3-1.9 4.2-4.2 4.2h-4.7l-.9 1.5c-1.9 3.4-4.7 6.4-8.2 8.9l-2 1.5 1.2 2.2 1 2.2c.9 1.7.1 4.1-1.7 5l-3.8 1.7c-.4.3-1 .4-1.6.4-1.5 0-2.6-.7-3.4-2l-1.7-3.6-.9-1.9-2.2.3c-1.9.3-3.8.4-5.5.4-2.8 0-5.7-.3-8.5-.9l-2.5-.6-.7 2.5-1.2 3.4c-.6 1.5-1.9 2.5-3.5 2.5-.4 0-.9 0-1.2-.1l-4.1-1.5c-1.9-.7-2.9-2.8-2.2-4.7l1.7-5.2.7-1.9-1.6-1.3c-5.5-4.5-8.5-10.3-8.5-16.6 0-13.4 14.1-24.5 31.3-24.5 2.3 0 4.8.3 7.1.6l2 .4 1-1.7c1.7-3.1 4.8-5.5 8.2-7-.6 2.5-.9 5.2-1 10.2v1.6l1.5.9c5.2 3.2 9.3 7.6 11.2 12.5l.7 1.9h3.6c2.3 0 4.2 1.9 4.2 4.2l.4 4.5zM194.4 432.9c0 2-1.6 3.6-3.6 3.6s-3.6-1.6-3.6-3.6 1.6-3.6 3.6-3.6 3.6 1.6 3.6 3.6zm58.9 54l38-38 2.1 2.1-38 38c-.1 0-2.1-2.1-2.1-2.1zm27.3-48.6h11.7v2.9h-11.7v-2.9zm32 0h11.7v2.9h-11.7v-2.9zm-11.6 11.7h2.9v11.7h-2.9v-11.7zm0-32.1h2.9v11.7h-2.9v-11.7zm17.9 7.5l-8.2 8.2-2.1-2.1 8.2-8.2 2.1 2.1zm-2.1 30.9l-8.2-8.2 2.1-2.1 8.2 8.2-2.1 2.1zm-22.5-22.6l-8.2-8.2 2.1-2.1 8.2 8.2c-.1 0-2.1 2.1-2.1 2.1zM440.1 359.1c-.1 0-.3 0-.5-.1-3.2-.8-6.4-2.1-9.3-3.8-.8-.5-1.1-1.6-.7-2.4.6-1.1.9-2.2.9-3.5 0-4-3.2-7.2-7.2-7.2-1.2 0-2.4.3-3.5.9-.9.5-1.9.2-2.4-.7-1.7-2.9-3-6-3.8-9.3-.2-.9.3-1.9 1.2-2.2 2.9-1 4.9-3.7 4.9-6.9s-2-5.9-4.9-6.9c-.9-.3-1.4-1.2-1.2-2.2.8-3.2 2.1-6.4 3.8-9.3.5-.8 1.6-1.1 2.4-.7 1.1.6 2.2.9 3.5.9 4 0 7.2-3.2 7.2-7.2 0-1.2-.3-2.4-.9-3.5-.5-.9-.2-1.9.7-2.4 2.9-1.7 6-3 9.3-3.8.9-.2 1.9.3 2.2 1.2 1 2.9 3.7 4.9 6.9 4.9 3.1 0 5.9-2 6.9-4.9.3-.9 1.2-1.4 2.2-1.2 3.2.8 6.4 2.1 9.3 3.8.8.5 1.1 1.6.7 2.4-.6 1.1-.9 2.2-.9 3.5 0 4 3.2 7.2 7.2 7.2 1.2 0 2.4-.3 3.5-.9.9-.5 1.9-.2 2.4.7 1.7 2.9 3 6 3.8 9.3.2.9-.3 1.9-1.2 2.2-2.9 1-4.9 3.7-4.9 6.9s2 5.9 4.9 6.9c.9.3 1.4 1.2 1.2 2.2-.8 3.2-2.1 6.4-3.8 9.3-.5.8-1.6 1.1-2.4.7-1.1-.6-2.2-.9-3.5-.9-4 0-7.2 3.2-7.2 7.2 0 1.2.3 2.4.9 3.5.5.9.2 1.9-.7 2.4-2.9 1.7-6 3-9.3 3.8-.9.2-1.9-.3-2.2-1.2-1-2.9-3.7-4.9-6.9-4.9-3.1 0-5.9 2-6.9 4.9-.2.8-.9 1.3-1.7 1.3zm8.6-9.8c4.1 0 7.7 2.3 9.6 5.8 1.9-.6 3.7-1.3 5.5-2.2-.4-1.1-.6-2.3-.6-3.5 0-6 4.9-10.8 10.8-10.8 1.2 0 2.4.2 3.5.6.9-1.7 1.7-3.6 2.2-5.5-3.5-1.9-5.8-5.5-5.8-9.6s2.3-7.7 5.8-9.6c-.6-1.9-1.3-3.7-2.2-5.5-1.1.4-2.3.6-3.5.6-6 0-10.8-4.9-10.8-10.8 0-1.2.2-2.4.6-3.5-1.7-.9-3.6-1.7-5.5-2.2-1.9 3.5-5.5 5.8-9.6 5.8s-7.7-2.3-9.6-5.8c-1.9.6-3.7 1.3-5.5 2.2.4 1.1.6 2.3.6 3.5 0 6-4.9 10.8-10.8 10.8-1.2 0-2.4-.2-3.5-.6-.9 1.7-1.7 3.6-2.2 5.5 3.5 1.9 5.8 5.5 5.8 9.6s-2.3 7.7-5.8 9.6c.6 1.9 1.3 3.7 2.2 5.5 1.1-.4 2.3-.6 3.5-.6 6 0 10.8 4.9 10.8 10.8 0 1.2-.2 2.4-.6 3.5 1.7.9 3.6 1.7 5.5 2.2 1.9-3.5 5.5-5.8 9.6-5.8zM448.7 334.8c-6 0-10.8-4.9-10.8-10.8 0-6 4.9-10.8 10.8-10.8 6 0 10.8 4.9 10.8 10.8.1 6-4.8 10.8-10.8 10.8zm0-18c-4 0-7.2 3.2-7.2 7.2s3.2 7.2 7.2 7.2 7.2-3.2 7.2-7.2-3.2-7.2-7.2-7.2zM95.5 182.7v4.8h-81.8v-4.8h81.8zm-56.7-38.6l20.2 14.6 26.9-30.1v11h4.8v-19.4h-19.4v4.8h11.4l-24.4 27.3-19.9-14.3-21 19 3.2 3.6c0-.1 18.2-16.5 18.2-16.5z"/><path class="st1" d="M100.8 390.5c-.1-.5-.5-.6-1-.2-.8.6-2 1.1-3.5 1.6s-3.3.7-5.2.7c-3.4 0-6-.7-7.7-2-.1-.1-.3-.2-.5-.2-.3 0-.6.2-1 .5-.2.2-.3.4-.3.6 0 .3.1.5.3.8.9.9 2.1 1.5 3.5 1.8 1.4.4 2.8.5 4.1.5 1.3 0 2.6-.1 4-.2 1.1-.1 2.2-.4 3.4-.8 1.2-.4 2-.8 2.6-1.2.6-.4 1-.6 1.1-.8.2-.3.3-.7.2-1.1zm-1.6-4.6c-.5-1.3-1-2.1-1.6-2.4-.6-.4-1.6-.6-3-.6-1.3 0-2.2.1-2.8.4-.8.3-1.8 1.1-3.1 2.2-.7.6-.9 1.2-.5 1.8.2.2.5.3.7.2.2-.1.6-.4 1.3-.9.1-.1.2-.2.4-.3.2-.2.3-.3.4-.3.1-.1.2-.1.4-.3l.5-.3c.1-.1.3-.1.5-.2s.4-.1.6-.2c.2 0 .4-.1.7-.1h.8c.7 0 1.3.1 1.8.3.5.2.8.4.9.6s.3.5.5.9c.3.5.4.7.5.8.1.1.2.1.5 0 .6-.6.7-1 .5-1.6z"/><path class="st2" d="M113.4 374.7c0-.6-.1-1.2-.2-1.8s-.4-1.2-.7-1.8c-.3-.6-.8-1.1-1.4-1.5s-1.3-.6-2.1-.6c-.9 0-2.2.6-3.9 1.7l-5.1 3.3c-1.7 1.1-3.1 1.7-4 1.7-.7 0-1.6-.2-2.5-.8-1-.5-2-1.2-3-2l-3.3-2.3c-1.2-.8-2.5-1.4-4-2-1.5-.5-3-.8-4.4-.8-3.1 0-5.7 1.1-7.9 3.1-2.2 2.1-3.3 4.4-3.4 7.1-.1 3 .9 5.2 3 6.5.8.5 1.6.9 2.5 1.1s2.3.3 4.1.3c1.5 0 3.3-.4 5.3-1.3s3.8-1.8 5.3-2.8 3.2-2 4.8-2.8c1.6-.9 2.9-1.3 3.7-1.2.7 0 1.6.4 2.6 1.3 1 .8 2 1.7 2.9 2.7s1.8 1.9 2.7 2.7c.9.8 1.7 1.3 2.2 1.3.9.1 1.7-.1 2.3-.6.6-.5 1.4-1.3 2.2-2.5.7-1.1 1.3-2.4 1.7-4 .4-1.4.6-2.8.6-4zM115.5 368.3c0 4.4-.8 8.4-2.5 12.2s-3.9 6.9-6.6 9.4c-2.8 2.5-6 4.5-9.7 6-3.7 1.4-7.6 2.2-11.6 2.2s-7.9-.8-11.7-2.3c-3.8-1.5-7-3.6-9.9-6.3s-5.1-5.9-6.8-9.6c-1.7-3.8-2.6-7.8-2.6-12.1 0-2.4.3-4.7.8-6.9s1.2-4.2 2-5.8c.8-1.6 1.7-3.2 2.8-4.7s2.1-2.8 3.1-3.8 2-1.9 3.1-2.8c1.1-.9 1.9-1.5 2.6-1.9.6-.4 1.2-.7 1.7-1 .4-.2 1.1-.6 2-1.1 1-.5 1.7-.9 2.2-1.1.5-.3 1.1-.7 1.9-1.2s1.6-1.1 2.4-1.8c1-.7 1.7-1.7 2.3-2.9.6-1.2 1-2.9 1.2-5 3.4 4.1 5.9 6.7 7.4 7.7 1.2.8 2.9 1.7 5.2 2.7 2.3 1 4 1.9 5.1 2.6.6.3 1.1.7 1.6 1s1.3.9 2.4 1.9c1.1.9 2.1 1.9 3 2.8s1.9 2.2 3 3.8c1.1 1.6 2 3.2 2.8 4.9s1.4 3.7 1.9 5.9.9 4.7.9 7.2z"/><path class="st3" d="M45.9 228.8l-27.2 5.2v38.6c0 9.3 8.2 21.3 27.2 28 19.1-6.6 27.2-18.6 27.2-28v-38.6l-27.2-5.2zm24.5 43.8c0 8-7.6 18.8-24.4 25-16.8-6.2-24.4-17-24.4-25v-36.2l24.4-4.8 24.4 4.6v36.4z"/><path class="st0" d="M309.4 68.8v2.4h-29.7v-4.8h24.8c-.5-8.1-3.8-15.5-8.9-21.3l-3.9 3.9-3.4-3.4 3.9-3.9c-5.8-5.1-13.2-8.3-21.3-8.8v14.3h-4.8v-14.3c-8.1.5-15.5 3.8-21.3 8.8l3.8 3.8-3.4 3.4-3.8-3.8c-5.1 5.8-8.3 13.2-8.9 21.3h24.9v4.8h-29.8v-2.4c0-22.6 18.3-40.9 40.9-40.9s40.9 18.4 40.9 40.9zm-31.2 0c0 5.3-4.3 9.6-9.6 9.6s-9.6-4.3-9.6-9.6c0-3.1 1.5-5.8 3.8-7.6l-10-17.5 4.2-2.4 10.3 18c.5-.1.9-.1 1.4-.1 5.1 0 9.5 4.3 9.5 9.6zm-4.9 0c0-2.7-2.2-4.8-4.8-4.8s-4.8 2.2-4.8 4.8c0 2.7 2.2 4.8 4.8 4.8s4.8-2.1 4.8-4.8z"/><path class="st4" d="M412 421.4c-1.1 1.9-2.1 3.6-3.1 5-3.9 6.4-5.7 9.4-6.6 14.7-.1.2-.1.5-.1.8h-13.5c0-.3 0-.6-.1-.7-.9-5.3-2.7-8.3-6.6-14.7-.9-1.4-1.9-3.1-3.1-5-1.9-3.2-3.9-8.3-3.9-11.2 0-9.9 9.1-18.1 20.3-18.1 5.5 0 10.7 1.9 14.6 5.4 3.7 3.4 5.8 7.9 5.8 12.7.1 2.9-1.8 8-3.7 11.1z"/><path class="st2" d="M387.4 450.8h16.1c-.8 5.2-4.1 9.1-8 9.1s-7.3-3.9-8.1-9.1z"/></g><g id="logo"><path class="st5" d="M206.2 346c-28.3 0-51.2-23-51.2-51.2v-140.7h138.9c28.2 0 51.1 23 51.1 51.2v140.7h-138.8z"/><path class="st6" d="M293.8 156.6c26.9 0 48.7 21.9 48.7 48.7v138.2h-136.3c-26.9 0-48.7-21.9-48.7-48.7v-138.2h136.3m0-5h-141.3v143.2c0 29.7 24.1 53.7 53.7 53.7h141.4v-143.3c-.1-29.5-24.1-53.6-53.8-53.6z"/><path class="st7" d="M224.1 238.1c0 7-2 12.3-5.9 15.7-3.9 3.5-9.6 5.2-17 5.2-2.3 0-4.7-.2-7.1-.7-2.4-.5-4.5-1.3-6.5-2.4s-3.6-2.6-4.9-4.5-2.1-4.1-2.3-6.9h10.3c.3 1.4.8 2.6 1.5 3.5s1.6 1.6 2.6 2.1 2.1.8 3.3 1c1.2.1 2.5.2 3.8.2 4.1 0 7.2-1 9.1-3.1 1.9-2 2.9-5 2.9-8.8v-7.1h-.2c-1.4 2.6-3.4 4.6-5.9 6s-5.2 2.2-8.1 2.2c-3.7 0-6.9-.6-9.5-1.9-2.6-1.3-4.8-3.1-6.5-5.3-1.7-2.3-3-4.9-3.7-7.8-.8-2.9-1.2-6.1-1.2-9.5 0-3.1.5-6.1 1.4-8.9 1-2.8 2.3-5.3 4.1-7.4 1.8-2.1 4-3.8 6.6-5.1s5.6-1.9 8.9-1.9c2.9 0 5.7.6 8.1 1.8 2.5 1.2 4.4 3.2 5.7 5.8h.2v-6.4h10.3v44.2zm-22.7-5.6c2.3 0 4.2-.5 5.8-1.4s2.9-2.2 3.9-3.7 1.7-3.3 2.2-5.2c.5-2 .7-3.9.7-5.9s-.2-3.9-.7-5.8c-.5-1.9-1.2-3.5-2.2-5-1-1.4-2.3-2.6-3.9-3.4-1.6-.8-3.5-1.3-5.7-1.3-2.3 0-4.2.5-5.8 1.4-1.6 1-2.8 2.2-3.8 3.7s-1.7 3.3-2.1 5.2c-.4 2-.6 3.9-.6 5.8s.2 3.8.7 5.6 1.2 3.5 2.2 4.9 2.3 2.6 3.8 3.5c1.5 1.1 3.3 1.6 5.5 1.6zm51.2 9.4c-3.7 0-7.1-.6-10-1.8s-5.4-2.9-7.4-5.1c-2-2.2-3.5-4.7-4.6-7.8-1.1-3-1.6-6.3-1.6-9.9 0-3.5.5-6.8 1.6-9.8s2.6-5.6 4.6-7.8 4.5-3.9 7.4-5.1 6.2-1.8 10-1.8 7.1.6 10 1.8 5.4 2.9 7.4 5.1c2 2.2 3.5 4.8 4.6 7.8s1.6 6.3 1.6 9.8c0 3.6-.5 6.9-1.6 9.9s-2.6 5.6-4.6 7.8-4.5 3.9-7.4 5.1c-3 1-6.4 1.8-10 1.8zm0-8.3c2.3 0 4.3-.5 6-1.4 1.7-1 3.1-2.2 4.2-3.8s1.9-3.3 2.4-5.3.8-4 .8-6-.3-4-.8-6-1.3-3.7-2.4-5.3c-1.1-1.5-2.5-2.8-4.2-3.7-1.7-1-3.7-1.4-6-1.4s-4.3.5-6 1.4c-1.7 1-3.1 2.2-4.1 3.7-1.1 1.5-1.9 3.3-2.4 5.3s-.8 4-.8 6 .3 4 .8 6 1.3 3.7 2.4 5.3c1.1 1.6 2.5 2.8 4.1 3.8 1.6 1 3.6 1.4 6 1.4zm24.2-39.6h11.2l11.8 35.8h.2l11.4-35.8h10.6l-16.7 46.6h-11.5l-17-46.6zM179.1 290.5c0-3.6.5-7 1.6-10.1s2.6-5.9 4.6-8.2c2-2.3 4.5-4.1 7.4-5.5 2.9-1.3 6.2-2 9.9-2 2.9 0 5.4.4 7.5 1.1 2.1.8 3.9 1.7 5.3 2.8s2.6 2.4 3.6 3.7c.9 1.3 1.6 2.6 2.1 3.8s.8 2.2 1 3c.2.9.3 1.3.3 1.4h-3c-.3-2.1-1-3.9-2-5.6-1-1.6-2.3-3-3.8-4.2-1.5-1.1-3.2-2-5.1-2.6-1.9-.6-3.8-.9-5.9-.9-3.2 0-6.1.6-8.6 1.9-2.5 1.2-4.7 2.9-6.4 5s-3.1 4.5-4 7.3-1.4 5.8-1.4 9 .5 6.2 1.4 9 2.3 5.3 4 7.3c1.7 2.1 3.9 3.8 6.4 5s5.4 1.9 8.6 1.9c2.4 0 4.6-.5 6.7-1.5s3.9-2.3 5.5-3.9 2.8-3.5 3.8-5.7c.9-2.1 1.5-4.4 1.6-6.7h3c-.3 2.9-1 5.7-2.2 8.1-1.2 2.5-2.7 4.6-4.5 6.4s-3.9 3.2-6.3 4.2-4.9 1.5-7.7 1.5c-3.7 0-7-.7-9.9-2s-5.4-3.2-7.4-5.5-3.5-5.1-4.6-8.2c-1-2.8-1.5-6.3-1.5-9.8zm50.4-24.6h4.3l19.2 45.9h.1l19-45.9h4.3v49.1h-3v-45.5h-.1l-18.7 45.5h-3l-19-45.5h-.1v45.5h-3v-49.1zm87.9 14.1c-.1-2.1-.5-4-1.3-5.5-.8-1.6-1.9-2.9-3.3-3.9-1.4-1.1-3-1.8-4.9-2.4-1.9-.5-4-.8-6.2-.8-1.4 0-2.9.2-4.4.5s-3.1.9-4.4 1.7c-1.4.8-2.5 1.9-3.3 3.2-.9 1.4-1.3 3-1.3 5.1 0 2 .5 3.6 1.4 4.8 1 1.2 2.2 2.2 3.8 3 1.6.8 3.4 1.4 5.4 1.8 2 .5 4.1.9 6.1 1.3 2.1.4 4.2.9 6.2 1.5s3.8 1.4 5.4 2.3c1.6 1 2.9 2.3 3.8 3.9 1 1.6 1.4 3.6 1.4 6 0 2.6-.6 4.7-1.7 6.5-1.1 1.7-2.5 3.2-4.2 4.3-1.7 1.1-3.5 1.9-5.6 2.4-2 .5-4 .7-5.9.7-2.9 0-5.6-.3-8.1-.9s-4.7-1.6-6.6-3-3.4-3.2-4.4-5.4-1.6-4.9-1.6-8.1h3c-.1 2.7.3 5 1.2 6.9s2.2 3.4 3.8 4.6c1.6 1.2 3.6 2.1 5.8 2.6 2.2.5 4.5.8 7 .8 1.5 0 3-.2 4.7-.6s3.2-1 4.6-1.9 2.6-2 3.5-3.4 1.4-3.2 1.4-5.4c0-2.1-.5-3.8-1.4-5.1-1-1.3-2.2-2.4-3.8-3.2s-3.4-1.4-5.4-1.9-4.1-.9-6.2-1.3-4.1-.9-6.1-1.4c-2-.6-3.8-1.3-5.4-2.2-1.6-.9-2.8-2.2-3.8-3.7s-1.4-3.4-1.4-5.8c0-2.3.5-4.4 1.5-6 1-1.7 2.3-3 3.9-4.1s3.4-1.8 5.3-2.3c2-.5 3.9-.7 5.9-.7 2.6 0 5 .3 7.2.9s4.2 1.5 5.9 2.7c1.7 1.2 3 2.8 4 4.7 1 1.9 1.6 4.3 1.7 7h-3.2v-.2z"/></g></svg>